<svg xmlns="http://www.w3.org/2000/svg" viewBox="0 0 45.55 64"><defs><style>.cls-1{fill:#ccc;}.cls-2{fill:#fff;}</style></defs><title>jan_logo_1</title><g id="Layer_2" data-name="Layer 2"><g id="Layer_1-2" data-name="Layer 1"><path class="cls-1" d="M42.67,47,26.77,62.89a3.81,3.81,0,0,1-5.38,0L1.23,42.72a3.8,3.8,0,0,1,0-5.37l9.93-9.93a.55.55,0,0,0,.38-.11c2.81-1.91,4.91-2.95,6.93-3.12,2.44-.2,4.77.84,8.14,3.14a.61.61,0,0,0,.85-.84A23.72,23.72,0,0,1,25,22.21c.5.31,1,.66,1.59,1a.61.61,0,0,0,.85-.84,19.37,19.37,0,0,1-2.86-5.49c.07-.25.15-.51.25-.77a3.83,3.83,0,0,1,1.92,1L39.48,29.9l3.19,3.19A9.81,9.81,0,0,1,42.67,47Z"/><path class="cls-2" d="M42.56,30.91,39.48,34,26.65,46.81a3.78,3.78,0,0,1-5.37,0L6.52,32.06,1.11,26.65a3.8,3.8,0,0,1,0-5.37L9.41,13c2.67,4.52,4.26,9.14,1.29,13.49a.61.61,0,0,0,.46,1,.55.55,0,0,0,.38-.11c2.81-1.91,4.91-2.95,6.93-3.12,2.44-.2,4.77.84,8.14,3.14a.61.61,0,0,0,.85-.84A23.72,23.72,0,0,1,25,22.21a9.52,9.52,0,0,1-.6-2,7.19,7.19,0,0,1,.18-3.25c.07-.25.15-.51.25-.77a22.32,22.32,0,0,1,2.63-4.72.61.61,0,0,0-.84-.85c-4.38,3-9.11,1.48-13.69-1.14l8.33-8.33a3.8,3.8,0,0,1,5.37,0L42.56,17A9.83,9.83,0,0,1,42.56,30.91Z"/></g></g></svg>