<svg xmlns="http://www.w3.org/2000/svg" viewBox="0 0 20.94 24"><defs><style>.cls-1{fill:#fefefe;}</style></defs><title>new_logo</title><g id="Layer_2" data-name="Layer 2"><g id="Layer_1-2" data-name="Layer 1"><path class="cls-1" d="M20.94,6.23a.33.33,0,0,0-.17-.31l-1.49-.86L16.59,3.51a.23.23,0,0,1-.13-.24c0-.39,0-.78,0-1.17a.3.3,0,0,0-.16-.29L13.53.21c-.13-.08-.19-.07-.18.1V1.42c0,.14,0,.2-.19.11L10.59,0a.21.21,0,0,0-.25,0c-.22.14-.45.26-.67.39l-2,1.15s-.09.1-.15,0,0-.1,0-.15V.37c0-.24,0-.25-.21-.13L4.5,1.83a.24.24,0,0,0-.13.25V3.33a.23.23,0,0,1-.11.23l-1.41.82L.17,5.92A.3.3,0,0,0,0,6.24V17.8c0,.1,0,.19.11.26l3,1.71,3.1,1.79c1.38.79,2.77,1.58,4.14,2.39a.29.29,0,0,0,.33,0l2.07-1.2,2.53-1.45,3.33-1.93,2.18-1.26a.35.35,0,0,0,.2-.32ZM17.58,16.34,12.94,19l-.73.42c-.14.08-.2,0-.19-.11V12.78c0-2.15,0-4.29,0-6.44A.35.35,0,0,0,11.84,6l-1.2-.68a.3.3,0,0,0-.35,0c-.39.22-.78.46-1.17.67a.32.32,0,0,0-.19.34v13c0,.15,0,.21-.18.1C7.9,19,7,18.47,6.18,18L3.3,16.31a.27.27,0,0,1-.14-.26V8a.27.27,0,0,1,.15-.27l.81-.47c.22-.13.25-.11.25.14,0,2.59,0,5.19,0,7.78a.47.47,0,0,0,.28.48c.87.48,1.73,1,2.59,1.49.25.14.25.14.25-.15q0-5.7,0-11.38a.46.46,0,0,1,.28-.46c.87-.49,1.73-1,2.59-1.49a.19.19,0,0,1,.23,0L13,5l.22.13a.25.25,0,0,1,.14.24,1.2,1.2,0,0,0,0,.19V17.11c0,.1,0,.14.14.08l2.79-1.61a.35.35,0,0,0,.18-.36v-8c0-.15.06-.19.2-.12l1,.59c.12.07.12.18.12.29v5.13c0,.95,0,1.91,0,2.87A.34.34,0,0,1,17.58,16.34Z"/></g></g></svg>