<svg xmlns="http://www.w3.org/2000/svg" viewBox="0 0 34.91 40"><defs><style>.cls-1{fill:#fefefe;}</style></defs><title>new_logo-icon</title><g id="Layer_2" data-name="Layer 2"><g id="Layer_1-2" data-name="Layer 1"><path class="cls-1" d="M34.9,10.38a.52.52,0,0,0-.29-.51L32.14,8.43,27.65,5.84a.37.37,0,0,1-.22-.39c0-.65,0-1.3,0-1.95A.48.48,0,0,0,27.17,3L22.55.35c-.22-.13-.31-.12-.31.17,0,.61,0,1.23,0,1.84,0,.24-.07.33-.32.19L17.66.07a.35.35,0,0,0-.42,0c-.37.23-.75.44-1.13.65L12.78,2.64c-.08,0-.14.15-.25.08s-.06-.17-.06-.26c0-.61,0-1.23,0-1.84,0-.41,0-.41-.35-.22C10.57,1.29,9,2.18,7.49,3.06a.39.39,0,0,0-.21.4V5.55a.37.37,0,0,1-.19.38L4.75,7.29C3.26,8.15,1.78,9,.28,9.86a.51.51,0,0,0-.28.53c0,3.2,0,6.4,0,9.6v9.67c0,.17,0,.33.18.45C1.83,31.05,3.46,32,5.1,33l5.16,3c2.31,1.33,4.62,2.64,6.91,4a.45.45,0,0,0,.54,0l3.45-2,4.22-2.42,5.55-3.22,3.64-2.1a.58.58,0,0,0,.34-.53Q34.89,20,34.9,10.38ZM29.3,27.23l-7.73,4.48c-.4.23-.82.45-1.23.69-.23.14-.32.07-.31-.19V21.3c0-3.58,0-7.16,0-10.73a.58.58,0,0,0-.3-.58c-.67-.38-1.34-.75-2-1.15a.53.53,0,0,0-.59,0c-.65.37-1.29.76-1.95,1.12a.54.54,0,0,0-.32.56q0,9.41,0,18.81c0,1,0,1.93,0,2.9,0,.26,0,.35-.31.18-1.42-.83-2.86-1.64-4.28-2.46L5.5,27.18a.45.45,0,0,1-.24-.43q0-6.73,0-13.47a.45.45,0,0,1,.26-.45c.45-.26.89-.53,1.34-.78s.42-.19.42.23q0,6.49,0,13a.78.78,0,0,0,.46.8c1.45.8,2.88,1.65,4.31,2.48.42.24.42.23.42-.25q0-9.48,0-19a.76.76,0,0,1,.45-.77c1.45-.81,2.89-1.65,4.32-2.49a.33.33,0,0,1,.38,0l4,2.32.36.22a.4.4,0,0,1,.24.4c0,.1,0,.21,0,.32v19.2c0,.17.06.24.24.14Q24.8,27.3,27.13,26a.59.59,0,0,0,.3-.6V12.08c0-.25.11-.32.33-.19l1.68,1c.2.12.19.3.19.5v8.53c0,1.6,0,3.19,0,4.79A.53.53,0,0,1,29.3,27.23Z"/></g></g></svg>