<svg xmlns="http://www.w3.org/2000/svg" viewBox="0 0 17.08 24"><defs><style>.cls-1{fill:#ccc;}.cls-2{fill:#fff;}</style></defs><title>Fav_icon_1</title><g id="Layer_2" data-name="Layer 2"><g id="Layer_1-2" data-name="Layer 1"><path class="cls-1" d="M16,17.62l-6,6a1.42,1.42,0,0,1-2,0L.46,16a1.41,1.41,0,0,1,0-2l3.73-3.73a.2.2,0,0,0,.14,0,5.81,5.81,0,0,1,2.6-1.17A4.79,4.79,0,0,1,10,10.25a.23.23,0,0,0,.32-.32,8.63,8.63,0,0,1-.92-1.6l.6.39a.23.23,0,0,0,.32-.32A7,7,0,0,1,9.23,6.35a1.61,1.61,0,0,1,.09-.29,1.44,1.44,0,0,1,.72.38l4.76,4.77,1.2,1.2A3.68,3.68,0,0,1,16,17.62Z"/><path class="cls-2" d="M16,11.59,14.8,12.74,10,17.56a1.43,1.43,0,0,1-2,0L2.45,12l-2-2a1.41,1.41,0,0,1,0-2L3.53,4.87c1,1.69,1.6,3.43.48,5.05a.23.23,0,0,0,.18.36.2.2,0,0,0,.14,0,5.81,5.81,0,0,1,2.6-1.17A4.79,4.79,0,0,1,10,10.25a.23.23,0,0,0,.32-.32,8.63,8.63,0,0,1-.92-1.6,3.47,3.47,0,0,1-.22-.77,2.62,2.62,0,0,1,.07-1.21,1.61,1.61,0,0,1,.09-.29,8.23,8.23,0,0,1,1-1.78A.23.23,0,0,0,10,4c-1.64,1.11-3.42.55-5.13-.43L8,.42a1.41,1.41,0,0,1,2,0l6,6A3.68,3.68,0,0,1,16,11.59Z"/></g></g></svg>